<svg xmlns="http://www.w3.org/2000/svg" width="208.81" height="35" viewBox="0 0 208.81 35"><rect class="svg__rect" x="0" y="0" width="83.76" height="35" fill="#5C5C5C"/><rect class="svg__rect" x="81.76" y="0" width="127.05" height="35" fill="#303030"/><path class="svg__text" d="M13.97 18.13L13.97 18.13L13.97 17.46Q13.97 15.53 14.90 14.44Q15.82 13.35 17.48 13.35L17.48 13.35Q18.90 13.35 19.74 14.05Q20.58 14.76 20.75 16.08L20.75 16.08L19.30 16.08Q19.05 14.54 17.51 14.54L17.51 14.54Q16.51 14.54 16.00 15.26Q15.48 15.98 15.46 17.37L15.46 17.37L15.46 18.02Q15.46 19.40 16.04 20.17Q16.63 20.93 17.66 20.93L17.66 20.93Q18.80 20.93 19.28 20.42L19.28 20.42L19.28 18.75L17.52 18.75L17.52 17.62L20.76 17.62L20.76 20.89Q20.29 21.50 19.47 21.81Q18.65 22.12 17.61 22.12L17.61 22.12Q16.54 22.12 15.71 21.63Q14.89 21.14 14.44 20.24Q13.99 19.33 13.97 18.13ZM26.94 22L25.46 22L25.46 13.47L26.94 13.47L26.94 22ZM33.43 14.66L30.79 14.66L30.79 13.47L37.56 13.47L37.56 14.66L34.90 14.66L34.90 22L33.43 22L33.43 14.66ZM42.80 22L41.32 22L41.32 13.47L42.80 13.47L42.80 17.02L46.61 17.02L46.61 13.47L48.09 13.47L48.09 22L46.61 22L46.61 18.21L42.80 18.21L42.80 22ZM52.70 19.16L52.70 19.16L52.70 13.47L54.17 13.47L54.17 19.18Q54.17 20.03 54.61 20.48Q55.04 20.93 55.88 20.93L55.88 20.93Q57.59 20.93 57.59 19.13L57.59 19.13L57.59 13.47L59.07 13.47L59.07 19.17Q59.07 20.53 58.20 21.32Q57.33 22.12 55.88 22.12L55.88 22.12Q54.42 22.12 53.56 21.33Q52.70 20.55 52.70 19.16ZM66.75 22L63.64 22L63.64 13.47L66.56 13.47Q68.01 13.47 68.77 14.05Q69.52 14.63 69.52 15.78L69.52 15.78Q69.52 16.36 69.21 16.83Q68.89 17.30 68.28 17.56L68.28 17.56Q68.97 17.75 69.35 18.26Q69.73 18.78 69.73 19.51L69.73 19.51Q69.73 20.71 68.96 21.36Q68.19 22 66.75 22L66.75 22ZM65.12 18.15L65.12 20.82L66.77 20.82Q67.47 20.82 67.86 20.47Q68.25 20.13 68.25 19.51L68.25 19.51Q68.25 18.18 66.89 18.15L66.89 18.15L65.12 18.15ZM65.12 14.66L65.12 17.06L66.58 17.06Q67.27 17.06 67.66 16.75Q68.05 16.43 68.05 15.86L68.05 15.86Q68.05 15.23 67.69 14.95Q67.33 14.66 66.56 14.66L66.56 14.66L65.12 14.66Z" fill="#FFFFFF"/><path class="svg__text" d="M95.52 18.96L95.52 18.96Q95.52 17.41 96.25 16.15Q96.98 14.90 98.32 14.18Q99.66 13.46 101.41 13.46L101.41 13.46Q103.08 13.46 104.38 14.14Q105.68 14.82 106.41 16.01Q107.13 17.20 107.13 18.67L107.13 18.67Q107.13 19.74 106.79 20.52Q106.45 21.29 105.86 21.69Q105.26 22.09 104.50 22.09L104.50 22.09Q103.86 22.09 103.40 21.83Q102.94 21.57 102.73 21.05L102.73 21.05Q102.14 22.09 100.79 22.09L100.79 22.09Q100.08 22.09 99.47 21.72Q98.85 21.34 98.49 20.66Q98.12 19.97 98.12 19.08L98.12 19.08Q98.12 18.19 98.48 17.51Q98.84 16.83 99.45 16.45Q100.07 16.08 100.79 16.08L100.79 16.08Q101.84 16.08 102.45 16.77L102.45 16.77L102.45 16.18L104.41 16.18L104.41 19.84Q104.41 20.22 104.55 20.39Q104.70 20.56 104.94 20.56L104.94 20.56Q105.69 20.56 105.69 18.70L105.69 18.70Q105.69 17.56 105.16 16.67Q104.63 15.78 103.65 15.29Q102.68 14.79 101.41 14.79L101.41 14.79Q100.15 14.79 99.17 15.33Q98.19 15.87 97.65 16.82Q97.11 17.78 97.11 18.96L97.11 18.96Q97.11 20.18 97.64 21.14Q98.17 22.09 99.14 22.63Q100.10 23.17 101.36 23.17L101.36 23.17Q102.65 23.17 103.75 22.64L103.75 22.64L104.19 23.92Q103.65 24.19 102.89 24.34Q102.13 24.50 101.36 24.50L101.36 24.50Q99.62 24.50 98.29 23.78Q96.97 23.05 96.24 21.79Q95.52 20.54 95.52 18.96ZM100.13 19.08L100.13 19.08Q100.13 19.73 100.45 20.10Q100.78 20.46 101.30 20.46L101.30 20.46Q101.83 20.46 102.16 20.10Q102.49 19.74 102.49 19.08L102.49 19.08Q102.49 18.43 102.16 18.07Q101.83 17.72 101.30 17.72L101.30 17.72Q100.78 17.72 100.45 18.08Q100.13 18.44 100.13 19.08ZM114.24 22L111.86 22L111.86 13.60L115.71 13.60Q116.85 13.60 117.69 13.98Q118.52 14.35 118.98 15.06Q119.44 15.76 119.44 16.71L119.44 16.71Q119.44 17.62 119.01 18.30Q118.58 18.98 117.79 19.36L117.79 19.36L119.60 22L117.06 22L115.54 19.77L114.24 19.77L114.24 22ZM114.24 15.47L114.24 17.93L115.56 17.93Q116.29 17.93 116.66 17.61Q117.04 17.29 117.04 16.71L117.04 16.71Q117.04 16.12 116.66 15.79Q116.29 15.47 115.56 15.47L115.56 15.47L114.24 15.47ZM126.31 22L123.58 13.60L126.03 13.60L127.72 18.96L129.49 13.60L131.68 13.60L133.37 19.01L135.14 13.60L137.40 13.60L134.68 22L132.14 22L130.53 16.89L128.85 22L126.31 22ZM148.66 22L141.91 22L141.91 13.60L148.51 13.60L148.51 15.44L144.27 15.44L144.27 16.85L148.00 16.85L148.00 18.63L144.27 18.63L144.27 20.17L148.66 20.17L148.66 22ZM159.85 22L153.46 22L153.46 13.60L155.84 13.60L155.84 20.11L159.85 20.11L159.85 22ZM165.69 22L163.26 22L166.97 13.60L169.31 13.60L173.03 22L170.56 22L169.90 20.37L166.35 20.37L165.69 22ZM168.12 15.93L167.04 18.61L169.20 18.61L168.12 15.93ZM181.72 22L177.18 22L177.18 13.60L181.48 13.60Q183.09 13.60 183.93 14.19Q184.77 14.79 184.77 15.79L184.77 15.79Q184.77 16.39 184.47 16.87Q184.18 17.34 183.64 17.62L183.64 17.62Q184.36 17.87 184.77 18.41Q185.17 18.94 185.17 19.70L185.17 19.70Q185.17 20.80 184.29 21.40Q183.40 22 181.72 22L181.72 22ZM179.54 18.58L179.54 20.28L181.53 20.28Q182.78 20.28 182.78 19.43L182.78 19.43Q182.78 18.58 181.53 18.58L181.53 18.58L179.54 18.58ZM179.54 15.31L179.54 16.94L181.17 16.94Q182.37 16.94 182.37 16.12L182.37 16.12Q182.37 15.31 181.17 15.31L181.17 15.31L179.54 15.31ZM189.31 21.24L189.31 21.24L190.08 19.49Q190.65 19.86 191.39 20.09Q192.14 20.32 192.86 20.32L192.86 20.32Q194.22 20.32 194.23 19.64L194.23 19.64Q194.23 19.28 193.84 19.11Q193.45 18.93 192.58 18.74L192.58 18.74Q191.63 18.53 191.00 18.30Q190.36 18.06 189.91 17.55Q189.45 17.03 189.45 16.16L189.45 16.16Q189.45 15.39 189.87 14.77Q190.29 14.15 191.12 13.79Q191.96 13.43 193.17 13.43L193.17 13.43Q193.99 13.43 194.80 13.62Q195.60 13.80 196.22 14.17L196.22 14.17L195.49 15.93Q194.29 15.28 193.15 15.28L193.15 15.28Q192.45 15.28 192.12 15.49Q191.80 15.70 191.80 16.04L191.80 16.04Q191.80 16.37 192.19 16.54Q192.57 16.71 193.42 16.89L193.42 16.89Q194.38 17.10 195.01 17.33Q195.64 17.56 196.10 18.07Q196.57 18.58 196.57 19.46L196.57 19.46Q196.57 20.21 196.15 20.83Q195.73 21.44 194.89 21.80Q194.05 22.17 192.84 22.17L192.84 22.17Q191.82 22.17 190.86 21.92Q189.90 21.67 189.31 21.24Z" fill="#FFFFFF" x="94.76"/></svg>