<svg xmlns="http://www.w3.org/2000/svg" width="218.84" height="35" viewBox="0 0 218.84 35"><rect class="svg__rect" x="0" y="0" width="93.79" height="35" fill="#45A4B8"/><rect class="svg__rect" x="91.79" y="0" width="127.05" height="35" fill="#3D93A6"/><path class="svg__text" d="M16.25 14.66L13.61 14.66L13.61 13.47L20.38 13.47L20.38 14.66L17.72 14.66L17.72 22L16.25 22L16.25 14.66ZM25.52 22L23.55 13.47L25.02 13.47L26.35 19.88L27.98 13.47L29.22 13.47L30.83 19.89L32.14 13.47L33.61 13.47L31.64 22L30.23 22L28.60 15.77L26.94 22L25.52 22ZM39.25 22L37.77 22L37.77 13.47L39.25 13.47L39.25 22ZM45.74 14.66L43.10 14.66L43.10 13.47L49.87 13.47L49.87 14.66L47.21 14.66L47.21 22L45.74 22L45.74 14.66ZM55.31 14.66L52.67 14.66L52.67 13.47L59.44 13.47L59.44 14.66L56.78 14.66L56.78 22L55.31 22L55.31 14.66ZM68.77 22L63.20 22L63.20 13.47L68.73 13.47L68.73 14.66L64.68 14.66L64.68 17.02L68.18 17.02L68.18 18.19L64.68 18.19L64.68 20.82L68.77 20.82L68.77 22ZM74.45 22L72.97 22L72.97 13.47L75.97 13.47Q77.45 13.47 78.25 14.13Q79.05 14.79 79.05 16.05L79.05 16.05Q79.05 16.90 78.64 17.48Q78.22 18.06 77.49 18.37L77.49 18.37L79.40 21.92L79.40 22L77.81 22L76.10 18.71L74.45 18.71L74.45 22ZM74.45 14.66L74.45 17.52L75.97 17.52Q76.72 17.52 77.15 17.15Q77.57 16.77 77.57 16.11L77.57 16.11Q77.57 15.43 77.18 15.05Q76.79 14.68 76.02 14.66L76.02 14.66L74.45 14.66Z" fill="#FFFFFF"/><path class="svg__text" d="M105.55 18.96L105.55 18.96Q105.55 17.41 106.28 16.15Q107.01 14.90 108.35 14.18Q109.69 13.46 111.44 13.46L111.44 13.46Q113.11 13.46 114.41 14.14Q115.71 14.82 116.44 16.01Q117.16 17.20 117.16 18.67L117.16 18.67Q117.16 19.74 116.82 20.52Q116.48 21.29 115.89 21.69Q115.29 22.09 114.53 22.09L114.53 22.09Q113.89 22.09 113.43 21.83Q112.97 21.57 112.76 21.05L112.76 21.05Q112.17 22.09 110.82 22.09L110.82 22.09Q110.11 22.09 109.50 21.72Q108.88 21.34 108.52 20.66Q108.15 19.97 108.15 19.08L108.15 19.08Q108.15 18.19 108.51 17.51Q108.87 16.83 109.48 16.45Q110.10 16.08 110.82 16.08L110.82 16.08Q111.87 16.08 112.48 16.77L112.48 16.77L112.48 16.18L114.44 16.18L114.44 19.84Q114.44 20.22 114.58 20.39Q114.73 20.56 114.97 20.56L114.97 20.56Q115.72 20.56 115.72 18.70L115.72 18.70Q115.72 17.56 115.19 16.67Q114.66 15.78 113.68 15.29Q112.71 14.79 111.44 14.79L111.44 14.79Q110.18 14.79 109.20 15.33Q108.22 15.87 107.68 16.82Q107.14 17.78 107.14 18.96L107.14 18.96Q107.14 20.18 107.67 21.14Q108.20 22.09 109.17 22.63Q110.13 23.17 111.39 23.17L111.39 23.17Q112.68 23.17 113.78 22.64L113.78 22.64L114.22 23.92Q113.68 24.19 112.92 24.34Q112.16 24.50 111.39 24.50L111.39 24.50Q109.65 24.50 108.32 23.78Q107.00 23.05 106.27 21.79Q105.55 20.54 105.55 18.96ZM110.16 19.08L110.16 19.08Q110.16 19.73 110.48 20.10Q110.81 20.46 111.33 20.46L111.33 20.46Q111.86 20.46 112.19 20.10Q112.52 19.74 112.52 19.08L112.52 19.08Q112.52 18.43 112.19 18.07Q111.86 17.72 111.33 17.72L111.33 17.72Q110.81 17.72 110.48 18.08Q110.16 18.44 110.16 19.08ZM124.27 22L121.89 22L121.89 13.60L125.74 13.60Q126.88 13.60 127.72 13.98Q128.55 14.35 129.01 15.06Q129.47 15.76 129.47 16.71L129.47 16.71Q129.47 17.62 129.04 18.30Q128.61 18.98 127.82 19.36L127.82 19.36L129.63 22L127.09 22L125.57 19.77L124.27 19.77L124.27 22ZM124.27 15.47L124.27 17.93L125.59 17.93Q126.32 17.93 126.69 17.61Q127.07 17.29 127.07 16.71L127.07 16.71Q127.07 16.12 126.69 15.79Q126.32 15.47 125.59 15.47L125.59 15.47L124.27 15.47ZM136.34 22L133.61 13.60L136.06 13.60L137.75 18.96L139.52 13.60L141.71 13.60L143.40 19.01L145.17 13.60L147.43 13.60L144.71 22L142.17 22L140.56 16.89L138.88 22L136.34 22ZM158.69 22L151.94 22L151.94 13.60L158.54 13.60L158.54 15.44L154.30 15.44L154.30 16.85L158.03 16.85L158.03 18.63L154.30 18.63L154.30 20.17L158.69 20.17L158.69 22ZM169.88 22L163.49 22L163.49 13.60L165.87 13.60L165.87 20.11L169.88 20.11L169.88 22ZM175.72 22L173.29 22L177.00 13.60L179.34 13.60L183.06 22L180.59 22L179.93 20.37L176.38 20.37L175.72 22ZM178.15 15.93L177.07 18.61L179.23 18.61L178.15 15.93ZM191.75 22L187.21 22L187.21 13.60L191.51 13.60Q193.12 13.60 193.96 14.19Q194.80 14.79 194.80 15.79L194.80 15.79Q194.80 16.39 194.50 16.87Q194.21 17.34 193.67 17.62L193.67 17.62Q194.39 17.87 194.80 18.41Q195.20 18.94 195.20 19.70L195.20 19.70Q195.20 20.80 194.32 21.40Q193.43 22 191.75 22L191.75 22ZM189.57 18.58L189.57 20.28L191.56 20.28Q192.81 20.28 192.81 19.43L192.81 19.43Q192.81 18.58 191.56 18.58L191.56 18.58L189.57 18.58ZM189.57 15.31L189.57 16.94L191.20 16.94Q192.40 16.94 192.40 16.12L192.40 16.12Q192.40 15.31 191.20 15.31L191.20 15.31L189.57 15.31ZM199.34 21.24L199.34 21.24L200.11 19.49Q200.68 19.86 201.42 20.09Q202.17 20.32 202.89 20.32L202.89 20.32Q204.25 20.32 204.26 19.64L204.26 19.64Q204.26 19.28 203.87 19.11Q203.48 18.93 202.61 18.74L202.61 18.74Q201.66 18.53 201.03 18.30Q200.39 18.06 199.94 17.55Q199.48 17.03 199.48 16.16L199.48 16.16Q199.48 15.39 199.90 14.77Q200.32 14.15 201.15 13.79Q201.99 13.43 203.20 13.43L203.20 13.43Q204.02 13.43 204.83 13.62Q205.63 13.80 206.25 14.17L206.25 14.17L205.52 15.93Q204.32 15.28 203.18 15.28L203.18 15.28Q202.48 15.28 202.15 15.49Q201.83 15.70 201.83 16.04L201.83 16.04Q201.83 16.37 202.22 16.54Q202.60 16.71 203.45 16.89L203.45 16.89Q204.41 17.10 205.04 17.33Q205.67 17.56 206.13 18.07Q206.60 18.58 206.60 19.46L206.60 19.46Q206.60 20.21 206.18 20.83Q205.76 21.44 204.92 21.80Q204.08 22.17 202.87 22.17L202.87 22.17Q201.85 22.17 200.89 21.92Q199.93 21.67 199.34 21.24Z" fill="#FFFFFF" x="104.79"/></svg>