<svg xmlns="http://www.w3.org/2000/svg" width="355.35" height="35" viewBox="0 0 355.35 35"><rect class="svg__rect" x="0" y="0" width="94.22" height="35" fill="#EA4582"/><rect class="svg__rect" x="92.22" y="0" width="263.13" height="35" fill="#D5387D"/><path class="svg__text" d="M15.60 22L13.63 13.47L15.10 13.47L16.43 19.88L18.06 13.47L19.30 13.47L20.91 19.89L22.22 13.47L23.69 13.47L21.72 22L20.31 22L18.68 15.77L17.02 22L15.60 22ZM33.34 22L27.76 22L27.76 13.47L33.30 13.47L33.30 14.66L29.25 14.66L29.25 17.02L32.75 17.02L32.75 18.19L29.25 18.19L29.25 20.82L33.34 20.82L33.34 22ZM40.65 22L37.54 22L37.54 13.47L40.46 13.47Q41.91 13.47 42.66 14.05Q43.42 14.63 43.42 15.78L43.42 15.78Q43.42 16.36 43.10 16.83Q42.79 17.30 42.18 17.56L42.18 17.56Q42.87 17.75 43.25 18.26Q43.63 18.78 43.63 19.51L43.63 19.51Q43.63 20.71 42.85 21.36Q42.08 22 40.65 22L40.65 22ZM39.02 18.15L39.02 20.82L40.67 20.82Q41.36 20.82 41.76 20.47Q42.15 20.13 42.15 19.51L42.15 19.51Q42.15 18.18 40.79 18.15L40.79 18.15L39.02 18.15ZM39.02 14.66L39.02 17.06L40.47 17.06Q41.16 17.06 41.55 16.75Q41.94 16.43 41.94 15.86L41.94 15.86Q41.94 15.23 41.58 14.95Q41.22 14.66 40.46 14.66L40.46 14.66L39.02 14.66ZM47.66 19.42L47.66 19.42L49.14 19.42Q49.14 20.15 49.63 20.55Q50.11 20.95 51.00 20.95L51.00 20.95Q51.78 20.95 52.17 20.63Q52.56 20.32 52.56 19.80L52.56 19.80Q52.56 19.24 52.16 18.94Q51.76 18.63 50.73 18.32Q49.70 18.01 49.09 17.63L49.09 17.63Q47.93 16.90 47.93 15.72L47.93 15.72Q47.93 14.69 48.77 14.02Q49.61 13.35 50.95 13.35L50.95 13.35Q51.84 13.35 52.54 13.68Q53.23 14.01 53.63 14.61Q54.03 15.22 54.03 15.96L54.03 15.96L52.56 15.96Q52.56 15.29 52.14 14.91Q51.72 14.54 50.94 14.54L50.94 14.54Q50.21 14.54 49.81 14.85Q49.41 15.16 49.41 15.71L49.41 15.71Q49.41 16.18 49.84 16.50Q50.28 16.81 51.27 17.10Q52.27 17.40 52.87 17.78Q53.48 18.16 53.76 18.65Q54.04 19.13 54.04 19.79L54.04 19.79Q54.04 20.86 53.22 21.49Q52.40 22.12 51.00 22.12L51.00 22.12Q50.08 22.12 49.30 21.77Q48.52 21.43 48.09 20.83Q47.66 20.22 47.66 19.42ZM59.89 22L58.41 22L58.41 13.47L59.89 13.47L59.89 22ZM66.38 14.66L63.75 14.66L63.75 13.47L70.51 13.47L70.51 14.66L67.85 14.66L67.85 22L66.38 22L66.38 14.66ZM79.85 22L74.27 22L74.27 13.47L79.81 13.47L79.81 14.66L75.75 14.66L75.75 17.02L79.26 17.02L79.26 18.19L75.75 18.19L75.75 20.82L79.85 20.82L79.85 22Z" fill="#FFFFFF"/><path class="svg__text" d="M112.79 22L106.41 22L106.41 13.60L108.79 13.60L108.79 20.11L112.79 20.11L112.79 22ZM118.63 22L116.20 22L119.91 13.60L122.26 13.60L125.97 22L123.51 22L122.84 20.37L119.29 20.37L118.63 22ZM121.07 15.93L119.98 18.61L122.15 18.61L121.07 15.93ZM134.67 22L130.13 22L130.13 13.60L134.43 13.60Q136.03 13.60 136.87 14.19Q137.71 14.79 137.71 15.79L137.71 15.79Q137.71 16.39 137.42 16.87Q137.12 17.34 136.58 17.62L136.58 17.62Q137.30 17.87 137.71 18.41Q138.12 18.94 138.12 19.70L138.12 19.70Q138.12 20.80 137.23 21.40Q136.34 22 134.67 22L134.67 22ZM132.48 18.58L132.48 20.28L134.47 20.28Q135.72 20.28 135.72 19.43L135.72 19.43Q135.72 18.58 134.47 18.58L134.47 18.58L132.48 18.58ZM132.48 15.31L132.48 16.94L134.11 16.94Q135.31 16.94 135.31 16.12L135.31 16.12Q135.31 15.31 134.11 15.31L134.11 15.31L132.48 15.31ZM142.25 21.24L142.25 21.24L143.03 19.49Q143.59 19.86 144.34 20.09Q145.08 20.32 145.80 20.32L145.80 20.32Q147.17 20.32 147.17 19.64L147.17 19.64Q147.17 19.28 146.78 19.11Q146.39 18.93 145.53 18.74L145.53 18.74Q144.58 18.53 143.94 18.30Q143.30 18.06 142.85 17.55Q142.40 17.03 142.40 16.16L142.40 16.16Q142.40 15.39 142.82 14.77Q143.23 14.15 144.07 13.79Q144.90 13.43 146.11 13.43L146.11 13.43Q146.94 13.43 147.74 13.62Q148.55 13.80 149.16 14.17L149.16 14.17L148.43 15.93Q147.23 15.28 146.10 15.28L146.10 15.28Q145.39 15.28 145.07 15.49Q144.75 15.70 144.75 16.04L144.75 16.04Q144.75 16.37 145.13 16.54Q145.51 16.71 146.36 16.89L146.36 16.89Q147.32 17.10 147.95 17.33Q148.58 17.56 149.05 18.07Q149.51 18.58 149.51 19.46L149.51 19.46Q149.51 20.21 149.09 20.83Q148.67 21.44 147.83 21.80Q146.99 22.17 145.79 22.17L145.79 22.17Q144.77 22.17 143.81 21.92Q142.85 21.67 142.25 21.24ZM153.57 20.75L153.57 20.75Q153.57 20.15 153.96 19.78Q154.35 19.41 154.94 19.41L154.94 19.41Q155.54 19.41 155.92 19.78Q156.31 20.15 156.31 20.75L156.31 20.75Q156.31 21.34 155.92 21.72Q155.53 22.11 154.94 22.11L154.94 22.11Q154.36 22.11 153.97 21.72Q153.57 21.34 153.57 20.75ZM163.34 22L160.96 22L160.96 13.60L164.81 13.60Q165.95 13.60 166.79 13.98Q167.63 14.35 168.08 15.06Q168.54 15.76 168.54 16.71L168.54 16.71Q168.54 17.62 168.11 18.30Q167.69 18.98 166.89 19.36L166.89 19.36L168.70 22L166.16 22L164.64 19.77L163.34 19.77L163.34 22ZM163.34 15.47L163.34 17.93L164.66 17.93Q165.39 17.93 165.77 17.61Q166.14 17.29 166.14 16.71L166.14 16.71Q166.14 16.12 165.77 15.79Q165.39 15.47 164.66 15.47L164.66 15.47L163.34 15.47ZM175.45 18.95L172.25 13.60L174.76 13.60L176.75 16.94L178.74 13.60L181.04 13.60L177.83 18.99L177.83 22L175.45 22L175.45 18.95ZM186.55 22L184.12 22L187.83 13.60L190.17 13.60L193.89 22L191.42 22L190.76 20.37L187.21 20.37L186.55 22ZM188.98 15.93L187.90 18.61L190.06 18.61L188.98 15.93ZM200.37 22L198.04 22L198.04 13.60L200.00 13.60L203.71 18.07L203.71 13.60L206.03 13.60L206.03 22L204.08 22L200.37 17.52L200.37 22ZM213.28 22L210.55 13.60L213.00 13.60L214.69 18.96L216.46 13.60L218.65 13.60L220.34 19.01L222.11 13.60L224.37 13.60L221.65 22L219.11 22L217.50 16.89L215.82 22L213.28 22ZM230.30 22L227.88 22L231.59 13.60L233.93 13.60L237.65 22L235.18 22L234.52 20.37L230.97 20.37L230.30 22ZM232.74 15.93L231.66 18.61L233.82 18.61L232.74 15.93ZM248.19 22L241.80 22L241.80 13.60L244.18 13.60L244.18 20.11L248.19 20.11L248.19 22ZM254.98 22L252.61 22L252.61 13.60L256.45 13.60Q257.59 13.60 258.43 13.98Q259.27 14.35 259.72 15.06Q260.18 15.76 260.18 16.71L260.18 16.71Q260.18 17.66 259.72 18.35Q259.27 19.05 258.43 19.42Q257.59 19.80 256.45 19.80L256.45 19.80L254.98 19.80L254.98 22ZM254.98 15.47L254.98 17.93L256.30 17.93Q257.03 17.93 257.41 17.61Q257.78 17.29 257.78 16.71L257.78 16.71Q257.78 16.12 257.41 15.80Q257.03 15.47 256.30 15.47L256.30 15.47L254.98 15.47ZM264.51 17.80L264.51 17.80Q264.51 16.55 265.11 15.55Q265.71 14.56 266.78 14.00Q267.84 13.43 269.17 13.43L269.17 13.43Q270.50 13.43 271.56 14.00Q272.63 14.56 273.23 15.55Q273.84 16.55 273.84 17.80L273.84 17.80Q273.84 19.05 273.23 20.04Q272.63 21.04 271.57 21.60Q270.51 22.17 269.17 22.17L269.17 22.17Q267.84 22.17 266.78 21.60Q265.71 21.04 265.11 20.04Q264.51 19.05 264.51 17.80ZM266.90 17.80L266.90 17.80Q266.90 18.51 267.20 19.05Q267.51 19.60 268.02 19.90Q268.54 20.20 269.17 20.20L269.17 20.20Q269.81 20.20 270.32 19.90Q270.84 19.60 271.14 19.05Q271.44 18.51 271.44 17.80L271.44 17.80Q271.44 17.09 271.14 16.54Q270.84 16 270.32 15.70Q269.81 15.40 269.17 15.40L269.17 15.40Q268.53 15.40 268.02 15.70Q267.51 16 267.20 16.54Q266.90 17.09 266.90 17.80ZM284.95 22L278.57 22L278.57 13.60L280.95 13.60L280.95 20.11L284.95 20.11L284.95 22ZM296.12 22L289.37 22L289.37 13.60L295.96 13.60L295.96 15.44L291.73 15.44L291.73 16.85L295.46 16.85L295.46 18.63L291.73 18.63L291.73 20.17L296.12 20.17L296.12 22ZM300.41 20.75L300.41 20.75Q300.41 20.15 300.80 19.78Q301.19 19.41 301.78 19.41L301.78 19.41Q302.37 19.41 302.76 19.78Q303.14 20.15 303.14 20.75L303.14 20.75Q303.14 21.34 302.75 21.72Q302.36 22.11 301.78 22.11L301.78 22.11Q301.20 22.11 300.80 21.72Q300.41 21.34 300.41 20.75ZM307.37 17.80L307.37 17.80Q307.37 16.54 307.97 15.54Q308.57 14.55 309.62 13.99Q310.67 13.43 311.99 13.43L311.99 13.43Q313.14 13.43 314.07 13.84Q314.99 14.25 315.61 15.02L315.61 15.02L314.09 16.39Q313.28 15.40 312.11 15.40L312.11 15.40Q311.43 15.40 310.89 15.70Q310.36 16 310.07 16.54Q309.77 17.09 309.77 17.80L309.77 17.80Q309.77 18.51 310.07 19.05Q310.36 19.60 310.89 19.90Q311.43 20.20 312.11 20.20L312.11 20.20Q313.28 20.20 314.09 19.22L314.09 19.22L315.61 20.58Q315.00 21.35 314.07 21.76Q313.14 22.17 311.99 22.17L311.99 22.17Q310.67 22.17 309.62 21.61Q308.57 21.05 307.97 20.05Q307.37 19.06 307.37 17.80ZM319.71 17.80L319.71 17.80Q319.71 16.55 320.32 15.55Q320.92 14.56 321.98 14.00Q323.05 13.43 324.38 13.43L324.38 13.43Q325.71 13.43 326.77 14.00Q327.83 14.56 328.44 15.55Q329.05 16.55 329.05 17.80L329.05 17.80Q329.05 19.05 328.44 20.04Q327.83 21.04 326.77 21.60Q325.71 22.17 324.38 22.17L324.38 22.17Q323.05 22.17 321.98 21.60Q320.92 21.04 320.32 20.04Q319.71 19.05 319.71 17.80ZM322.11 17.80L322.11 17.80Q322.11 18.51 322.41 19.05Q322.71 19.60 323.23 19.90Q323.74 20.20 324.38 20.20L324.38 20.20Q325.02 20.20 325.53 19.90Q326.05 19.60 326.35 19.05Q326.64 18.51 326.64 17.80L326.64 17.80Q326.64 17.09 326.35 16.54Q326.05 16 325.53 15.70Q325.02 15.40 324.38 15.40L324.38 15.40Q323.74 15.40 323.23 15.70Q322.71 16 322.41 16.54Q322.11 17.09 322.11 17.80ZM335.97 22L333.78 22L333.78 13.60L335.73 13.60L338.69 18.45L341.57 13.60L343.52 13.60L343.54 22L341.36 22L341.34 17.55L339.18 21.17L338.12 21.17L335.97 17.67L335.97 22Z" fill="#FFFFFF" x="105.22"/></svg>